<svg width="512" height="512" viewBox="0 0 512 512" fill="none" xmlns="http://www.w3.org/2000/svg">
<path d="M34.7975 128.289L256 0.57735L477.203 128.289V383.711L256 511.423L34.7975 383.711V128.289Z" fill="url(#paint0_linear_1_13)" stroke="#595959"/>
<path d="M96.618 264.783C93.486 264.783 90.557 264.232 87.831 263.13C85.163 262.028 82.901 260.491 81.045 258.519L86.091 251.82C87.947 253.502 89.658 254.72 91.224 255.474C92.848 256.17 94.298 256.518 95.574 256.518C96.56 256.518 97.43 256.431 98.184 256.257C98.996 256.025 99.634 255.706 100.098 255.3C100.562 254.836 100.794 254.256 100.794 253.56C100.794 252.574 100.388 251.791 99.576 251.211C98.822 250.631 97.836 250.167 96.618 249.819C95.4 249.413 94.095 249.007 92.703 248.601C89.223 247.499 86.7 245.904 85.134 243.816C83.626 241.67 82.872 239.35 82.872 236.856C82.872 234.942 83.365 233.028 84.351 231.114C85.395 229.142 87.019 227.518 89.223 226.242C91.485 224.908 94.385 224.241 97.923 224.241C101.113 224.241 103.81 224.56 106.014 225.198C108.218 225.836 110.306 226.88 112.278 228.33L107.667 235.464C106.565 234.594 105.318 233.869 103.926 233.289C102.592 232.651 101.345 232.303 100.185 232.245C99.141 232.187 98.242 232.303 97.488 232.593C96.792 232.883 96.241 233.26 95.835 233.724C95.429 234.188 95.226 234.681 95.226 235.203C95.168 236.305 95.574 237.175 96.444 237.813C97.372 238.451 98.532 238.944 99.924 239.292C101.316 239.64 102.679 240.046 104.013 240.51C105.869 241.09 107.464 241.873 108.798 242.859C110.132 243.845 111.147 245.034 111.843 246.426C112.597 247.76 112.974 249.384 112.974 251.298C112.974 253.618 112.365 255.822 111.147 257.91C109.987 259.94 108.189 261.593 105.753 262.869C103.375 264.145 100.33 264.783 96.618 264.783ZM124.133 209.277H136.313V225.807H145.535V235.29H136.313V264H124.133V235.29H118.217V225.807H124.133V209.277ZM168.203 265.044C164.665 265.044 161.446 264.348 158.546 262.956C155.704 261.506 153.442 259.302 151.76 256.344C150.078 253.386 149.237 249.616 149.237 245.034C149.237 240.742 150.107 237.03 151.847 233.898C153.587 230.766 155.878 228.359 158.72 226.677C161.562 224.937 164.578 224.067 167.768 224.067C171.538 224.067 174.38 224.705 176.294 225.981C178.266 227.199 179.89 228.562 181.166 230.07L180.644 231.549L181.775 225.981H193.085V264H180.905V255.735L181.862 258.345C181.746 258.345 181.398 258.693 180.818 259.389C180.238 260.027 179.368 260.81 178.208 261.738C177.106 262.608 175.714 263.362 174.032 264C172.408 264.696 170.465 265.044 168.203 265.044ZM171.683 255.126C173.133 255.126 174.438 254.923 175.598 254.517C176.758 254.053 177.773 253.415 178.643 252.603C179.513 251.733 180.267 250.66 180.905 249.384V240.075C180.441 238.799 179.745 237.726 178.817 236.856C177.889 235.928 176.787 235.232 175.511 234.768C174.235 234.246 172.814 233.985 171.248 233.985C169.508 233.985 167.884 234.449 166.376 235.377C164.926 236.247 163.766 237.465 162.896 239.031C162.026 240.597 161.591 242.395 161.591 244.425C161.591 246.455 162.055 248.282 162.983 249.906C163.911 251.53 165.129 252.806 166.637 253.734C168.203 254.662 169.885 255.126 171.683 255.126ZM214.075 225.981L215.032 232.767L214.858 232.158C216.192 229.78 218.077 227.866 220.513 226.416C222.949 224.908 225.936 224.154 229.474 224.154C233.07 224.154 236.057 225.227 238.435 227.373C240.871 229.461 242.118 232.187 242.176 235.551V264H229.996V240.075C229.938 238.393 229.474 237.059 228.604 236.073C227.792 235.029 226.4 234.507 224.428 234.507C222.572 234.507 220.948 235.116 219.556 236.334C218.164 237.552 217.091 239.205 216.337 241.293C215.583 243.381 215.206 245.788 215.206 248.514V264H203.026V225.981H214.075ZM267.558 265.044C264.02 265.044 260.859 264.232 258.075 262.608C255.291 260.926 253.087 258.519 251.463 255.387C249.897 252.255 249.114 248.543 249.114 244.251C249.114 239.959 249.984 236.305 251.724 233.289C253.464 230.273 255.842 227.982 258.858 226.416C261.874 224.85 265.296 224.067 269.124 224.067C271.56 224.067 273.88 224.444 276.084 225.198C278.346 225.952 280.231 227.112 281.739 228.678V232.506V195.357H293.832V264H281.652V256.605L282.609 259.215C280.637 260.839 278.433 262.231 275.997 263.391C273.561 264.493 270.748 265.044 267.558 265.044ZM271.56 254.778C273.184 254.778 274.605 254.575 275.823 254.169C277.099 253.705 278.201 253.067 279.129 252.255C280.115 251.385 280.956 250.312 281.652 249.036V239.727C281.188 238.451 280.463 237.378 279.477 236.508C278.549 235.58 277.389 234.884 275.997 234.42C274.663 233.898 273.184 233.637 271.56 233.637C269.762 233.637 268.08 234.101 266.514 235.029C265.006 235.899 263.788 237.117 262.86 238.683C261.932 240.249 261.468 242.047 261.468 244.077C261.468 246.107 261.932 247.934 262.86 249.558C263.788 251.182 265.006 252.458 266.514 253.386C268.08 254.314 269.762 254.778 271.56 254.778ZM319.76 265.044C316.222 265.044 313.003 264.348 310.103 262.956C307.261 261.506 304.999 259.302 303.317 256.344C301.635 253.386 300.794 249.616 300.794 245.034C300.794 240.742 301.664 237.03 303.404 233.898C305.144 230.766 307.435 228.359 310.277 226.677C313.119 224.937 316.135 224.067 319.325 224.067C323.095 224.067 325.937 224.705 327.851 225.981C329.823 227.199 331.447 228.562 332.723 230.07L332.201 231.549L333.332 225.981H344.642V264H332.462V255.735L333.419 258.345C333.303 258.345 332.955 258.693 332.375 259.389C331.795 260.027 330.925 260.81 329.765 261.738C328.663 262.608 327.271 263.362 325.589 264C323.965 264.696 322.022 265.044 319.76 265.044ZM323.24 255.126C324.69 255.126 325.995 254.923 327.155 254.517C328.315 254.053 329.33 253.415 330.2 252.603C331.07 251.733 331.824 250.66 332.462 249.384V240.075C331.998 238.799 331.302 237.726 330.374 236.856C329.446 235.928 328.344 235.232 327.068 234.768C325.792 234.246 324.371 233.985 322.805 233.985C321.065 233.985 319.441 234.449 317.933 235.377C316.483 236.247 315.323 237.465 314.453 239.031C313.583 240.597 313.148 242.395 313.148 244.425C313.148 246.455 313.612 248.282 314.54 249.906C315.468 251.53 316.686 252.806 318.194 253.734C319.76 254.662 321.442 255.126 323.24 255.126ZM365.545 225.981L366.676 236.421L366.415 234.855C367.517 232.593 369.025 230.679 370.939 229.113C372.853 227.489 374.738 226.242 376.594 225.372C378.508 224.502 379.958 224.067 380.944 224.067L380.335 236.247C377.493 235.899 375.057 236.363 373.027 237.639C370.997 238.915 369.431 240.597 368.329 242.685C367.227 244.773 366.676 246.919 366.676 249.123V264H354.583V225.981H365.545ZM401.443 265.044C397.905 265.044 394.744 264.232 391.96 262.608C389.176 260.926 386.972 258.519 385.348 255.387C383.782 252.255 382.999 248.543 382.999 244.251C382.999 239.959 383.869 236.305 385.609 233.289C387.349 230.273 389.727 227.982 392.743 226.416C395.759 224.85 399.181 224.067 403.009 224.067C405.445 224.067 407.765 224.444 409.969 225.198C412.231 225.952 414.116 227.112 415.624 228.678V232.506V195.357H427.717V264H415.537V256.605L416.494 259.215C414.522 260.839 412.318 262.231 409.882 263.391C407.446 264.493 404.633 265.044 401.443 265.044ZM405.445 254.778C407.069 254.778 408.49 254.575 409.708 254.169C410.984 253.705 412.086 253.067 413.014 252.255C414 251.385 414.841 250.312 415.537 249.036V239.727C415.073 238.451 414.348 237.378 413.362 236.508C412.434 235.58 411.274 234.884 409.882 234.42C408.548 233.898 407.069 233.637 405.445 233.637C403.647 233.637 401.965 234.101 400.399 235.029C398.891 235.899 397.673 237.117 396.745 238.683C395.817 240.249 395.353 242.047 395.353 244.077C395.353 246.107 395.817 247.934 396.745 249.558C397.673 251.182 398.891 252.458 400.399 253.386C401.965 254.314 403.647 254.778 405.445 254.778Z" fill="white"/>
<path d="M206.18 306.016H227.06V412H206.18V306.016ZM305.246 331.648C301.214 329.44 297.086 327.616 292.862 326.176C288.734 324.736 284.846 324.016 281.198 324.016C276.686 324.016 273.134 324.928 270.542 326.752C267.95 328.576 266.654 331.312 266.654 334.96C266.654 337.456 267.614 339.712 269.534 341.728C271.55 343.648 274.094 345.376 277.166 346.912C280.334 348.448 283.598 349.84 286.958 351.088C290.03 352.24 293.054 353.632 296.03 355.264C299.102 356.8 301.838 358.768 304.238 361.168C306.638 363.472 308.558 366.4 309.998 369.952C311.438 373.408 312.158 377.68 312.158 382.768C312.158 388.144 310.766 393.136 307.982 397.744C305.198 402.352 301.118 406.096 295.742 408.976C290.366 411.76 283.742 413.152 275.87 413.152C271.838 413.152 267.71 412.768 263.486 412C259.358 411.136 255.278 409.888 251.246 408.256C247.214 406.528 243.326 404.368 239.582 401.776L248.798 385.504C251.294 387.328 253.982 388.96 256.862 390.4C259.838 391.744 262.814 392.8 265.79 393.568C268.766 394.336 271.502 394.72 273.998 394.72C276.494 394.72 278.99 394.384 281.486 393.712C284.078 392.944 286.19 391.696 287.822 389.968C289.55 388.24 290.414 385.84 290.414 382.768C290.414 380.656 289.694 378.736 288.254 377.008C286.91 375.28 285.038 373.696 282.638 372.256C280.334 370.816 277.79 369.568 275.006 368.512C271.742 367.264 268.382 365.824 264.926 364.192C261.47 362.56 258.206 360.592 255.134 358.288C252.158 355.888 249.71 352.96 247.79 349.504C245.966 345.952 245.054 341.632 245.054 336.544C245.054 330.4 246.398 325.072 249.086 320.56C251.87 316.048 255.758 312.496 260.75 309.904C265.742 307.216 271.502 305.728 278.03 305.44C286.574 305.44 293.486 306.448 298.766 308.464C304.142 310.48 308.942 312.88 313.166 315.664L305.246 331.648Z" fill="white"/>
<defs>
<linearGradient id="paint0_linear_1_13" x1="256" y1="0" x2="256" y2="512" gradientUnits="userSpaceOnUse">
<stop/>
<stop offset="1" stop-color="#484848"/>
</linearGradient>
</defs>
</svg>
